<?xml version="1.0" encoding="UTF-8"?>
<svg width="152px" height="118px" viewBox="0 0 152 118" version="1.1" xmlns="http://www.w3.org/2000/svg" xmlns:xlink="http://www.w3.org/1999/xlink">
    <!-- Generator: Sketch 52.6 (67491) - http://www.bohemiancoding.com/sketch -->
    <title>LiveSafe LA Logo V5 VECTOR</title>
    <desc>Created with Sketch.</desc>
    <defs>
        <linearGradient x1="50%" y1="100%" x2="50%" y2="-5.01848021%" id="linearGradient-1">
            <stop stop-color="#FFB347" offset="0%"></stop>
            <stop stop-color="#FFCC33" offset="100%"></stop>
        </linearGradient>
    </defs>
    <g id="LiveSafe-LA-Logo-V5-VECTOR" stroke="none" stroke-width="1" fill="none" fill-rule="evenodd">
        <polygon id="Path-2" fill="url(#linearGradient-1)" points="24 44.8279126 24 52 131 52 131 44.8279126 125.976526 44.8279126 125.976526 40.2863462 121.455399 40.2863462 121.455399 38.2678723 114.422535 38.2678723 114.422535 45.1339361 112.915493 44.8279126 112.915493 37.2586353 111.408451 37.2586353 111.408451 35.7447798 101.86385 35.7447798 101.86385 40.2863462 100.356808 40.2863462 100.356808 42.8094387 100.356808 45.1339361 98.8497653 45.1339361 98.8497653 40.2863462 96.3380282 34.0377501 93.3239437 40.2863462 93.3239437 41.8002017 91.8169014 41.8002017 91.8169014 20.6062252 83.7793427 20.6062252 83.7793427 37.2586353 81.7699531 37.2586353 81.7699531 15.5600403 75.741784 15.5600403 75.741784 30.1023173 74.7370892 31.2032135 74.7370892 43.8186757 72.2253521 43.8186757 72.2253521 20.6062252 70.2159624 9 66.6995305 9 65.1924883 13.5415664 65.1924883 20.6062252 62.1784038 20.6062252 62.1784038 18.5414289 52.6338028 18.5414289 52.6338028 30.5 51.1267606 30.5 51.1267606 47.3510051 49.6197183 47.3510051 49.6197183 30.5 47.1079812 30.5 47.1079812 23.1293177 44.5962441 20.6062252 35.5539906 20.6062252 35.5539906 35.7447798 33.0422535 35.7447798 33.0422535 38.2678723 31.0328638 38.2678723 31.0328638 41.8002017 29.0234742 41.8002017 29.0234742 39.2771093 27.0140845 39.2771093 27.0140845 44.8279126"></polygon>
        <path d="M12.418,80 L12.418,61.54 L13.744,61.54 L13.744,78.804 L24.768,78.804 L24.768,80 L12.418,80 Z M28.4494236,80 L28.4494236,61.54 L29.7754236,61.54 L29.7754236,80 L28.4494236,80 Z M34.9128471,61.54 L41.9328471,78.336 L48.9528471,61.54 L50.3568471,61.54 L42.5568471,80 L41.3348471,80 L33.5088471,61.54 L34.9128471,61.54 Z M66.4142707,78.804 L66.4142707,80 L54.1162707,80 L54.1162707,61.54 L66.1802707,61.54 L66.1802707,62.736 L55.4422707,62.736 L55.4422707,69.99 L64.8282707,69.99 L64.8282707,71.134 L55.4422707,71.134 L55.4422707,78.804 L66.4142707,78.804 Z M88.9268429,66.376 C88.8055089,66.2546661 88.5845111,66.090001 88.2638429,65.882 C87.9431746,65.673999 87.5531785,65.4703343 87.0938429,65.271 C86.6345072,65.0716657 86.1361789,64.9026674 85.5988429,64.764 C85.0615069,64.6253326 84.5155123,64.556 83.9608429,64.556 C82.9728379,64.556 82.2361786,64.7379982 81.7508429,65.102 C81.2655071,65.4660018 81.0228429,65.97733 81.0228429,66.636 C81.0228429,67.0173352 81.113842,67.3336654 81.2958429,67.585 C81.4778438,67.8363346 81.7421745,68.0573324 82.0888429,68.248 C82.4355113,68.4386676 82.8731736,68.6119992 83.4018429,68.768 C83.9305122,68.9240008 84.5415061,69.0886658 85.2348429,69.262 C86.1361807,69.5046679 86.9551725,69.7646653 87.6918429,70.042 C88.4285132,70.3193347 89.052507,70.6659979 89.5638429,71.082 C90.0751788,71.4980021 90.4695082,71.9963304 90.7468429,72.577 C91.0241776,73.1576696 91.1628429,73.8726624 91.1628429,74.722 C91.1628429,75.7100049 90.9765114,76.5549965 90.6038429,77.257 C90.2311743,77.9590035 89.7285127,78.5266645 89.0958429,78.96 C88.463173,79.3933355 87.7351803,79.7096657 86.9118429,79.909 C86.0885054,80.1083343 85.2261807,80.208 84.3248429,80.208 C82.9381693,80.208 81.5688496,80.0000021 80.2168429,79.584 C78.8648361,79.1679979 77.6515149,78.5786705 76.5768429,77.816 L78.1628429,74.722 C78.3188437,74.8780008 78.6005075,75.0816654 79.0078429,75.333 C79.4151782,75.5843346 79.8961734,75.8356654 80.4508429,76.087 C81.0055123,76.3383346 81.6208395,76.5506658 82.2968429,76.724 C82.9728463,76.8973342 83.6661727,76.984 84.3768429,76.984 C86.3528528,76.984 87.3408429,76.3513397 87.3408429,75.086 C87.3408429,74.6873313 87.2281773,74.3493347 87.0028429,74.072 C86.7775084,73.7946653 86.456845,73.552001 86.0408429,73.344 C85.6248408,73.135999 85.1221792,72.9453342 84.5328429,72.772 C83.9435066,72.5986658 83.2848465,72.408001 82.5568429,72.2 C81.6728385,71.9573321 80.9058461,71.6930014 80.2558429,71.407 C79.6058396,71.1209986 79.0641784,70.7830019 78.6308429,70.393 C78.1975074,70.0029981 77.8725106,69.5523359 77.6558429,69.041 C77.4391751,68.5296641 77.3308429,67.9186702 77.3308429,67.208 C77.3308429,66.2719953 77.5041745,65.4400036 77.8508429,64.712 C78.1975113,63.9839964 78.6785065,63.3773358 79.2938429,62.892 C79.9091793,62.4066642 80.6241721,62.0383346 81.4388429,61.787 C82.2535136,61.5356654 83.1288382,61.41 84.0648429,61.41 C85.3648494,61.41 86.5608374,61.6136646 87.6528429,62.021 C88.7448483,62.4283354 89.6981721,62.9093306 90.5128429,63.464 L88.9268429,66.376 Z M99.6979915,61.54 L102.869992,61.54 L109.889992,80 L106.197992,80 L104.481992,75.398 L98.0339915,75.398 L96.3439915,80 L92.6519915,80 L99.6979915,61.54 Z M103.831992,72.876 L101.283992,65.622 L98.6319915,72.876 L103.831992,72.876 Z M112.80914,80 L112.80914,61.54 L125.21114,61.54 L125.21114,64.686 L116.39714,64.686 L116.39714,69.444 L123.72914,69.444 L123.72914,72.356 L116.39714,72.356 L116.39714,80 L112.80914,80 Z M141.442289,76.854 L141.442289,80 L128.624289,80 L128.624289,61.54 L141.208289,61.54 L141.208289,64.686 L132.212289,64.686 L132.212289,69.132 L139.986289,69.132 L139.986289,72.044 L132.212289,72.044 L132.212289,76.854 L141.442289,76.854 Z" id="LIVE-SAFE" fill="#EDEDED"></path>
        <path d="M29.892,103.478 L29.892,104 L25.254,104 L25.254,95.51 L25.872,95.51 L25.872,103.478 L29.892,103.478 Z M40.4519999,99.752 C40.4519999,100.408003 40.3540009,101.002997 40.1579999,101.537 C39.9619989,102.071003 39.6860017,102.526998 39.3299999,102.905 C38.9739981,103.283002 38.5470024,103.574999 38.0489999,103.781 C37.5509974,103.987001 37.0020029,104.09 36.4019999,104.09 C35.8019969,104.09 35.2540024,103.987001 34.7579999,103.781 C34.2619974,103.574999 33.8360017,103.283002 33.4799999,102.905 C33.1239981,102.526998 32.8480009,102.071003 32.6519999,101.537 C32.4559989,101.002997 32.3579999,100.408003 32.3579999,99.752 C32.3579999,99.0999967 32.4559989,98.5070027 32.6519999,97.973 C32.8480009,97.4389973 33.1239981,96.9830019 33.4799999,96.605 C33.8360017,96.2269981 34.2619974,95.934001 34.7579999,95.726 C35.2540024,95.517999 35.8019969,95.414 36.4019999,95.414 C37.0020029,95.414 37.5509974,95.516999 38.0489999,95.723 C38.5470024,95.929001 38.9739981,96.2219981 39.3299999,96.602 C39.6860017,96.9820019 39.9619989,97.4389973 40.1579999,97.973 C40.3540009,98.5070027 40.4519999,99.0999967 40.4519999,99.752 Z M39.8159999,99.752 C39.8159999,99.159997 39.7340007,98.6280024 39.5699999,98.156 C39.4059991,97.6839976 39.1740014,97.2840016 38.8739999,96.956 C38.5739984,96.6279984 38.214002,96.3770009 37.7939999,96.203 C37.3739978,96.0289991 36.9100024,95.942 36.4019999,95.942 C35.8979974,95.942 35.436002,96.0289991 35.0159999,96.203 C34.5959978,96.3770009 34.2350014,96.6279984 33.9329999,96.956 C33.6309984,97.2840016 33.3970007,97.6839976 33.2309999,98.156 C33.0649991,98.6280024 32.9819999,99.159997 32.9819999,99.752 C32.9819999,100.348003 33.0649991,100.880998 33.2309999,101.351 C33.3970007,101.821002 33.6309984,102.219998 33.9329999,102.548 C34.2350014,102.876002 34.5959978,103.125999 35.0159999,103.298 C35.436002,103.470001 35.8979974,103.556 36.4019999,103.556 C36.9100024,103.556 37.3739978,103.470001 37.7939999,103.298 C38.214002,103.125999 38.5739984,102.876002 38.8739999,102.548 C39.1740014,102.219998 39.4059991,101.821002 39.5699999,101.351 C39.7340007,100.880998 39.8159999,100.348003 39.8159999,99.752 Z M48.6299998,96.542 C48.5939996,96.6100003 48.5420001,96.644 48.4739998,96.644 C48.4219995,96.644 48.3550002,96.6070004 48.2729998,96.533 C48.1909994,96.4589996 48.0800005,96.3770004 47.9399998,96.287 C47.7999991,96.1969996 47.6250009,96.1140004 47.4149998,96.038 C47.2049988,95.9619996 46.9460013,95.924 46.6379998,95.924 C46.3299983,95.924 46.059001,95.9679996 45.8249998,96.056 C45.5909986,96.1440004 45.3950006,96.2639992 45.2369998,96.416 C45.078999,96.5680008 44.9590002,96.743999 44.8769998,96.944 C44.7949994,97.144001 44.7539998,97.3539989 44.7539998,97.574 C44.7539998,97.8620014 44.8149992,98.0999991 44.9369998,98.288 C45.0590004,98.4760009 45.2199988,98.6359993 45.4199998,98.768 C45.6200008,98.9000007 45.8469985,99.0109996 46.1009998,99.101 C46.3550011,99.1910005 46.6159985,99.2799996 46.8839998,99.368 C47.1520011,99.4560004 47.4129985,99.5529995 47.6669998,99.659 C47.9210011,99.7650005 48.1479988,99.8979992 48.3479998,100.058 C48.5480008,100.218001 48.7089992,100.414999 48.8309998,100.649 C48.9530004,100.883001 49.0139998,101.173998 49.0139998,101.522 C49.0139998,101.878002 48.9530004,102.212998 48.8309998,102.527 C48.7089992,102.841002 48.532001,103.113999 48.2999998,103.346 C48.0679986,103.578001 47.7840015,103.760999 47.4479998,103.895 C47.1119981,104.029001 46.728002,104.096 46.2959998,104.096 C45.735997,104.096 45.2540018,103.997001 44.8499998,103.799 C44.4459978,103.600999 44.0920013,103.330002 43.7879998,102.986 L43.9559998,102.722 C44.004,102.662 44.0599995,102.632 44.1239998,102.632 C44.16,102.632 44.2059995,102.656 44.2619998,102.704 C44.3180001,102.752 44.3859994,102.811 44.4659998,102.881 C44.5460002,102.951 44.6419992,103.027 44.7539998,103.109 C44.8660004,103.191 44.9959991,103.267 45.1439998,103.337 C45.2920005,103.407 45.4619988,103.466 45.6539998,103.514 C45.8460008,103.562 46.0639986,103.586 46.3079998,103.586 C46.6440015,103.586 46.9439985,103.535001 47.2079998,103.433 C47.4720011,103.330999 47.6949989,103.192001 47.8769998,103.016 C48.0590007,102.839999 48.1979993,102.631001 48.2939998,102.389 C48.3900003,102.146999 48.4379998,101.888001 48.4379998,101.612 C48.4379998,101.311999 48.3770004,101.065001 48.2549998,100.871 C48.1329992,100.676999 47.9720008,100.515001 47.7719998,100.385 C47.5719988,100.254999 47.3450011,100.146 47.0909998,100.058 C46.8369985,99.9699996 46.5760011,99.8840004 46.3079998,99.8 C46.0399985,99.7159996 45.7790011,99.6220005 45.5249998,99.518 C45.2709985,99.4139995 45.0440008,99.2810008 44.8439998,99.119 C44.6439988,98.9569992 44.4830004,98.7550012 44.3609998,98.513 C44.2389992,98.2709988 44.1779998,97.9680018 44.1779998,97.604 C44.1779998,97.3199986 44.2319993,97.0460013 44.3399998,96.782 C44.4480003,96.5179987 44.6059988,96.285001 44.8139998,96.083 C45.0220008,95.880999 45.2789983,95.7190006 45.5849998,95.597 C45.8910013,95.4749994 46.2399978,95.414 46.6319998,95.414 C47.072002,95.414 47.4669981,95.4839993 47.8169998,95.624 C48.1670016,95.7640007 48.4859984,95.9779986 48.7739998,96.266 L48.6299998,96.542 Z M62.5679996,100.916 L60.8399996,96.626 C60.7799993,96.4859993 60.7219999,96.318001 60.6659996,96.122 C60.6419995,96.2180005 60.6159998,96.3089996 60.5879996,96.395 C60.5599995,96.4810004 60.5299998,96.5599996 60.4979996,96.632 L58.7699996,100.916 L62.5679996,100.916 Z M64.4459996,104 L63.9719996,104 C63.9159993,104 63.8699998,103.985 63.8339996,103.955 C63.7979994,103.925 63.7699997,103.886 63.7499996,103.838 L62.7539996,101.372 L58.5839996,101.372 L57.5879996,103.838 C57.5719995,103.882 57.5439998,103.92 57.5039996,103.952 C57.4639994,103.984 57.4159999,104 57.3599996,104 L56.8919996,104 L60.3659996,95.51 L60.9719996,95.51 L64.4459996,104 Z M74.5079995,95.51 L74.5079995,104 L74.2199995,104 C74.1679993,104 74.1249997,103.991 74.0909995,103.973 C74.0569994,103.955 74.0239997,103.924 73.9919995,103.88 L68.4779995,96.512 C68.4899996,96.6320006 68.4959995,96.7459995 68.4959995,96.854 L68.4959995,104 L67.9559995,104 L67.9559995,95.51 L68.2619995,95.51 C68.3179998,95.51 68.3609994,95.5169999 68.3909995,95.531 C68.4209997,95.5450001 68.4539993,95.5759998 68.4899995,95.624 L73.9919995,102.974 C73.9799995,102.853999 73.9739995,102.740001 73.9739995,102.632 L73.9739995,95.51 L74.5079995,95.51 Z M85.8959994,100.148 L85.8959994,103.166 C85.4719973,103.466002 85.0200018,103.695999 84.5399994,103.856 C84.059997,104.016001 83.5200024,104.096 82.9199994,104.096 C82.2479961,104.096 81.6440021,103.993001 81.1079994,103.787 C80.5719967,103.580999 80.1150013,103.289002 79.7369994,102.911 C79.3589975,102.532998 79.0690004,102.076003 78.8669994,101.54 C78.6649984,101.003997 78.5639994,100.408003 78.5639994,99.752 C78.5639994,99.0959967 78.6629984,98.5010027 78.8609994,97.967 C79.0590004,97.4329973 79.3429976,96.9770019 79.7129994,96.599 C80.0830013,96.2209981 80.5299968,95.929001 81.0539994,95.723 C81.578002,95.516999 82.1679961,95.414 82.8239994,95.414 C83.148001,95.414 83.4469981,95.4359998 83.7209994,95.48 C83.9950008,95.5240002 84.2499982,95.5889996 84.4859994,95.675 C84.7220006,95.7610004 84.9419984,95.8669994 85.1459994,95.993 C85.3500004,96.1190006 85.5459985,96.2639992 85.7339994,96.428 L85.5659994,96.692 C85.5099991,96.7880005 85.426,96.8100003 85.3139994,96.758 C85.2539991,96.7339999 85.168,96.6780004 85.0559994,96.59 C84.9439989,96.5019996 84.7900004,96.4100005 84.5939994,96.314 C84.3979984,96.2179995 84.1550009,96.1320004 83.8649994,96.056 C83.574998,95.9799996 83.2220015,95.942 82.8059994,95.942 C82.2539967,95.942 81.7550017,96.0299991 81.3089994,96.206 C80.8629972,96.3820009 80.483001,96.6339984 80.1689994,96.962 C79.8549979,97.2900016 79.6130003,97.6899976 79.4429994,98.162 C79.2729986,98.6340024 79.1879994,99.1639971 79.1879994,99.752 C79.1879994,100.348003 79.2729986,100.883998 79.4429994,101.36 C79.6130003,101.836002 79.8589978,102.239998 80.1809994,102.572 C80.503001,102.904002 80.8939971,103.157999 81.3539994,103.334 C81.8140017,103.510001 82.3319965,103.598 82.9079994,103.598 C83.1600007,103.598 83.3929984,103.582 83.6069994,103.55 C83.8210005,103.518 84.0249985,103.473 84.2189994,103.415 C84.4130004,103.357 84.6009985,103.285 84.7829994,103.199 C84.9650003,103.113 85.1499985,103.016001 85.3379994,102.908 L85.3379994,100.622 L83.7119994,100.622 C83.6679992,100.622 83.6309996,100.608 83.6009994,100.58 C83.5709993,100.552 83.5559994,100.52 83.5559994,100.484 L83.5559994,100.148 L85.8959994,100.148 Z M95.1359993,103.49 L95.1239993,104 L90.0359993,104 L90.0359993,95.51 L95.1239993,95.51 L95.1239993,96.02 L90.6539993,96.02 L90.6539993,99.452 L94.3739993,99.452 L94.3739993,99.95 L90.6539993,99.95 L90.6539993,103.49 L95.1359993,103.49 Z M103.733999,103.478 L103.733999,104 L99.0959992,104 L99.0959992,95.51 L99.7139992,95.51 L99.7139992,103.478 L103.733999,103.478 Z M112.367999,103.49 L112.355999,104 L107.267999,104 L107.267999,95.51 L112.355999,95.51 L112.355999,96.02 L107.885999,96.02 L107.885999,99.452 L111.605999,99.452 L111.605999,99.95 L107.885999,99.95 L107.885999,103.49 L112.367999,103.49 Z M120.449999,96.542 C120.413999,96.6100003 120.361999,96.644 120.293999,96.644 C120.241999,96.644 120.174999,96.6070004 120.092999,96.533 C120.010999,96.4589996 119.9,96.3770004 119.759999,96.287 C119.619998,96.1969996 119.445,96.1140004 119.234999,96.038 C119.024998,95.9619996 118.766001,95.924 118.457999,95.924 C118.149998,95.924 117.879,95.9679996 117.644999,96.056 C117.410998,96.1440004 117.215,96.2639992 117.056999,96.416 C116.898998,96.5680008 116.778999,96.743999 116.696999,96.944 C116.614999,97.144001 116.573999,97.3539989 116.573999,97.574 C116.573999,97.8620014 116.634998,98.0999991 116.756999,98.288 C116.879,98.4760009 117.039998,98.6359993 117.239999,98.768 C117.44,98.9000007 117.666998,99.0109996 117.920999,99.101 C118.175,99.1910005 118.435998,99.2799996 118.703999,99.368 C118.972,99.4560004 119.232998,99.5529995 119.486999,99.659 C119.741,99.7650005 119.967998,99.8979992 120.167999,100.058 C120.368,100.218001 120.528998,100.414999 120.650999,100.649 C120.773,100.883001 120.833999,101.173998 120.833999,101.522 C120.833999,101.878002 120.773,102.212998 120.650999,102.527 C120.528998,102.841002 120.352,103.113999 120.119999,103.346 C119.887998,103.578001 119.604001,103.760999 119.267999,103.895 C118.931997,104.029001 118.548001,104.096 118.115999,104.096 C117.555996,104.096 117.074001,103.997001 116.669999,103.799 C116.265997,103.600999 115.912001,103.330002 115.607999,102.986 L115.775999,102.722 C115.823999,102.662 115.879999,102.632 115.943999,102.632 C115.979999,102.632 116.025999,102.656 116.081999,102.704 C116.137999,102.752 116.205999,102.811 116.285999,102.881 C116.365999,102.951 116.461998,103.027 116.573999,103.109 C116.686,103.191 116.815998,103.267 116.963999,103.337 C117.112,103.407 117.281998,103.466 117.473999,103.514 C117.666,103.562 117.883998,103.586 118.127999,103.586 C118.464001,103.586 118.763998,103.535001 119.027999,103.433 C119.292,103.330999 119.514998,103.192001 119.696999,103.016 C119.879,102.839999 120.017999,102.631001 120.113999,102.389 C120.21,102.146999 120.257999,101.888001 120.257999,101.612 C120.257999,101.311999 120.197,101.065001 120.074999,100.871 C119.952998,100.676999 119.792,100.515001 119.591999,100.385 C119.391998,100.254999 119.165,100.146 118.910999,100.058 C118.656998,99.9699996 118.396,99.8840004 118.127999,99.8 C117.859998,99.7159996 117.599,99.6220005 117.344999,99.518 C117.090998,99.4139995 116.864,99.2810008 116.663999,99.119 C116.463998,98.9569992 116.303,98.7550012 116.180999,98.513 C116.058998,98.2709988 115.997999,97.9680018 115.997999,97.604 C115.997999,97.3199986 116.051999,97.0460013 116.159999,96.782 C116.268,96.5179987 116.425998,96.285001 116.633999,96.083 C116.842,95.880999 117.098998,95.7190006 117.404999,95.597 C117.711001,95.4749994 118.059997,95.414 118.451999,95.414 C118.892001,95.414 119.286997,95.4839993 119.636999,95.624 C119.987001,95.7640007 120.305998,95.9779986 120.593999,96.266 L120.449999,96.542 Z" id="LOS-ANGELES" fill="#EDEDED"></path>
        <path d="M144,88 L10,88" id="Line" stroke="#FFFFFF" stroke-linecap="square"></path>
    </g>
</svg>