<?xml version="1.0" encoding="UTF-8"?>
<svg width="199px" height="46px" viewBox="0 0 199 46" version="1.1" xmlns="http://www.w3.org/2000/svg" xmlns:xlink="http://www.w3.org/1999/xlink">
    <!-- Generator: Sketch 52.6 (67491) - http://www.bohemiancoding.com/sketch -->
    <title>LiveSafe LA Logo V6</title>
    <desc>Created with Sketch.</desc>
    <g id="LiveSafe-LA-Logo-V6" stroke="none" stroke-width="1" fill="none" fill-rule="evenodd">
        <path d="M8.418,32 L8.418,13.54 L9.744,13.54 L9.744,30.804 L20.768,30.804 L20.768,32 L8.418,32 Z M24.4494236,32 L24.4494236,13.54 L25.7754236,13.54 L25.7754236,32 L24.4494236,32 Z M30.9128471,13.54 L37.9328471,30.336 L44.9528471,13.54 L46.3568471,13.54 L38.5568471,32 L37.3348471,32 L29.5088471,13.54 L30.9128471,13.54 Z M62.4142707,30.804 L62.4142707,32 L50.1162707,32 L50.1162707,13.54 L62.1802707,13.54 L62.1802707,14.736 L51.4422707,14.736 L51.4422707,21.99 L60.8282707,21.99 L60.8282707,23.134 L51.4422707,23.134 L51.4422707,30.804 L62.4142707,30.804 Z M84.9268429,18.376 C84.8055089,18.2546661 84.5845111,18.090001 84.2638429,17.882 C83.9431746,17.673999 83.5531785,17.4703343 83.0938429,17.271 C82.6345072,17.0716657 82.1361789,16.9026674 81.5988429,16.764 C81.0615069,16.6253326 80.5155123,16.556 79.9608429,16.556 C78.9728379,16.556 78.2361786,16.7379982 77.7508429,17.102 C77.2655071,17.4660018 77.0228429,17.97733 77.0228429,18.636 C77.0228429,19.0173352 77.113842,19.3336654 77.2958429,19.585 C77.4778438,19.8363346 77.7421745,20.0573324 78.0888429,20.248 C78.4355113,20.4386676 78.8731736,20.6119992 79.4018429,20.768 C79.9305122,20.9240008 80.5415061,21.0886658 81.2348429,21.262 C82.1361807,21.5046679 82.9551725,21.7646653 83.6918429,22.042 C84.4285132,22.3193347 85.052507,22.6659979 85.5638429,23.082 C86.0751788,23.4980021 86.4695082,23.9963304 86.7468429,24.577 C87.0241776,25.1576696 87.1628429,25.8726624 87.1628429,26.722 C87.1628429,27.7100049 86.9765114,28.5549965 86.6038429,29.257 C86.2311743,29.9590035 85.7285127,30.5266645 85.0958429,30.96 C84.463173,31.3933355 83.7351803,31.7096657 82.9118429,31.909 C82.0885054,32.1083343 81.2261807,32.208 80.3248429,32.208 C78.9381693,32.208 77.5688496,32.0000021 76.2168429,31.584 C74.8648361,31.1679979 73.6515149,30.5786705 72.5768429,29.816 L74.1628429,26.722 C74.3188437,26.8780008 74.6005075,27.0816654 75.0078429,27.333 C75.4151782,27.5843346 75.8961734,27.8356654 76.4508429,28.087 C77.0055123,28.3383346 77.6208395,28.5506658 78.2968429,28.724 C78.9728463,28.8973342 79.6661727,28.984 80.3768429,28.984 C82.3528528,28.984 83.3408429,28.3513397 83.3408429,27.086 C83.3408429,26.6873313 83.2281773,26.3493347 83.0028429,26.072 C82.7775084,25.7946653 82.456845,25.552001 82.0408429,25.344 C81.6248408,25.135999 81.1221792,24.9453342 80.5328429,24.772 C79.9435066,24.5986658 79.2848465,24.408001 78.5568429,24.2 C77.6728385,23.9573321 76.9058461,23.6930014 76.2558429,23.407 C75.6058396,23.1209986 75.0641784,22.7830019 74.6308429,22.393 C74.1975074,22.002998 73.8725106,21.5523359 73.6558429,21.041 C73.4391751,20.5296641 73.3308429,19.9186702 73.3308429,19.208 C73.3308429,18.2719953 73.5041745,17.4400036 73.8508429,16.712 C74.1975113,15.9839964 74.6785065,15.3773358 75.2938429,14.892 C75.9091793,14.4066642 76.6241721,14.0383346 77.4388429,13.787 C78.2535136,13.5356654 79.1288382,13.41 80.0648429,13.41 C81.3648494,13.41 82.5608374,13.6136646 83.6528429,14.021 C84.7448483,14.4283354 85.6981721,14.9093306 86.5128429,15.464 L84.9268429,18.376 Z M95.6979915,13.54 L98.8699915,13.54 L105.889992,32 L102.197992,32 L100.481992,27.398 L94.0339915,27.398 L92.3439915,32 L88.6519915,32 L95.6979915,13.54 Z M99.8319915,24.876 L97.2839915,17.622 L94.6319915,24.876 L99.8319915,24.876 Z M108.80914,32 L108.80914,13.54 L121.21114,13.54 L121.21114,16.686 L112.39714,16.686 L112.39714,21.444 L119.72914,21.444 L119.72914,24.356 L112.39714,24.356 L112.39714,32 L108.80914,32 Z M137.442289,28.854 L137.442289,32 L124.624289,32 L124.624289,13.54 L137.208289,13.54 L137.208289,16.686 L128.212289,16.686 L128.212289,21.132 L135.986289,21.132 L135.986289,24.044 L128.212289,24.044 L128.212289,28.854 L137.442289,28.854 Z" id="LIVE-SAFE" fill="#EDEDED"></path>
        <path d="M164.247,28.49 L164.247,32 L152.833,32 L152.833,13.059 L157.227,13.059 L157.227,28.49 L164.247,28.49 Z M181.043,24.759 L179.288,19.572 C179.158,19.242665 179.019334,18.8548356 178.872,18.4085 C178.724666,17.9621644 178.577334,17.4790026 178.43,16.959 C178.3,17.4876693 178.161334,17.9773311 178.014,18.428 C177.866666,18.8786689 177.728001,19.268665 177.598,19.598 L175.856,24.759 L181.043,24.759 Z M188.024,32 L184.618,32 C184.236665,32 183.929001,31.9111676 183.695,31.7335 C183.460999,31.5558324 183.283334,31.3283347 183.162,31.051 L182.044,27.749 L174.842,27.749 L173.724,31.051 C173.628666,31.2936679 173.457501,31.512499 173.2105,31.7075 C172.963499,31.902501 172.658002,32 172.294,32 L168.862,32 L176.194,13.059 L180.692,13.059 L188.024,32 Z" id="LA" fill="#FFBE3E"></path>
        <path d="M145.5,38 L145.5,8" id="Line" stroke="#FFFFFF" stroke-linecap="square"></path>
    </g>
</svg>